<svg xmlns="http://www.w3.org/2000/svg" viewBox="0 0 256 256" role="img" aria-label="Email icon">
  <defs>
    <linearGradient id="mailBg" x1="35" y1="30" x2="220" y2="226" gradientUnits="userSpaceOnUse">
      <stop stop-color="#18e8ff" />
      <stop offset="0.55" stop-color="#2b5dff" />
      <stop offset="1" stop-color="#9b3dff" />
    </linearGradient>
    <filter id="glow" x="-35%" y="-35%" width="170%" height="170%">
      <feGaussianBlur stdDeviation="9" result="blur" />
      <feColorMatrix in="blur" type="matrix" values="0 0 0 0 0.09 0 0 0 0 0.91 0 0 0 0 1 0 0 0 0.58 0" />
      <feBlend in="SourceGraphic" />
    </filter>
  </defs>
  <rect width="256" height="256" rx="58" fill="#060a18" />
  <rect x="18" y="18" width="220" height="220" rx="48" fill="url(#mailBg)" filter="url(#glow)" />
  <path d="M68 82h120c11 0 20 9 20 20v72c0 11-9 20-20 20H68c-11 0-20-9-20-20v-72c0-11 9-20 20-20Z" fill="rgba(255,255,255,0.96)" />
  <path d="M59 100l69 48 69-48" fill="none" stroke="#071027" stroke-width="15" stroke-linecap="round" stroke-linejoin="round" />
  <path d="M61 181l47-42m87 42l-47-42" fill="none" stroke="#071027" stroke-width="13" stroke-linecap="round" stroke-linejoin="round" opacity="0.88" />
</svg>
