<svg xmlns="http://www.w3.org/2000/svg" viewBox="0 0 24 24" role="img" aria-label="WhatsApp">
  <path fill="#25d366" d="M12.03 2.5A9.42 9.42 0 0 0 3.9 16.7L2.8 21.5l4.9-1.04a9.43 9.43 0 1 0 4.33-17.96Z" />
  <path fill="#ffffff" d="m7.78 6.74.68-.04c.23-.02.46.01.64.42.24.57.74 1.95.8 2.09.07.14.11.31.02.5-.09.19-.14.3-.28.46-.14.17-.3.38-.42.5-.14.14-.29.29-.13.56.15.27.68 1.13 1.47 1.82 1.02.9 1.86 1.17 2.14 1.31.27.14.44.12.6-.07.18-.22.7-.82.89-1.1.18-.27.36-.23.61-.14.25.09 1.58.75 1.85.89.27.14.45.2.52.32.07.12.07.7-.16 1.37-.23.66-1.34 1.26-1.87 1.31-.48.04-1.09.06-1.76-.11-.4-.1-.92-.3-1.58-.58-2.78-1.2-4.59-3.99-4.73-4.18-.14-.18-1.13-1.5-1.13-2.86s.72-2.03.97-2.3c.25-.28.55-.35.89-.35Z" />
  <path fill="#ffffff" fill-rule="evenodd" d="M12.03 4.15a7.78 7.78 0 0 0-6.55 11.98l.22.34-.65 2.84 2.9-.62.33.2a7.78 7.78 0 1 0 3.75-14.74Zm-9.42 7.78a9.42 9.42 0 1 1 4.99 8.31L2.8 21.5l1.23-4.76a9.36 9.36 0 0 1-1.42-4.81Z" clip-rule="evenodd" />
</svg>
